<mxfile host="drawio-plugin" modified="2023-02-04T23:12:15.174Z" agent="5.0 (X11; Linux x86_64) AppleWebKit/537.36 (KHTML, like Gecko) Chrome/98.0.4758.102 Safari/537.36" etag="DYgknZHK-jfy4F_ZKIho" version="20.5.3" type="embed"><diagram id="7Dr9HhDEKM17Uiamg6SR" name="Diagrama de Classes"><mxGraphModel dx="1203" dy="202" grid="1" gridSize="10" guides="1" tooltips="1" connect="1" arrows="1" fold="1" page="1" pageScale="1" pageWidth="850" pageHeight="1100" background="#114B5F" math="0" shadow="1"><root><mxCell id="0"/><mxCell id="1" parent="0"/><mxCell id="7WRl4GNoLDAF7Gh1Gfhk-77" style="edgeStyle=orthogonalEdgeStyle;rounded=1;  orthogonalLoop=1;jettySize=auto;html=1;  entryX=0.579;entryY=1.038;  entryDx=0;entryDy=0;entryPerimeter=0;labelBackgroundColor=#114B5F;strokeColor=#028090;fontColor=#E4FDE1;curved=1;" parent="1" source="7WRl4GNoLDAF7Gh1Gfhk-1" target="7WRl4GNoLDAF7Gh1Gfhk-18" edge="1"><mxGeometry relative="1" as="geometry"/></mxCell><mxCell id="7WRl4GNoLDAF7Gh1Gfhk-1" value="Machinery" style="swimlane;fontStyle=0;align=center;  verticalAlign=top;childLayout=stackLayout;horizontal=1;  startSize=26;horizontalStack=0;resizeParent=1;  resizeLast=0;collapsible=1;marginBottom=0;rounded=1;  shadow=0;strokeWidth=1;fillColor=#dae8fc;strokeColor=#6c8ebf;shadow=1;glass=1;gradientColor=#7ea6e0;" parent="1" vertex="1"><mxGeometry x="61" y="160" width="160" height="372" as="geometry"><mxRectangle x="550" y="140" width="160" height="26" as="alternateBounds"/></mxGeometry></mxCell><mxCell id="7WRl4GNoLDAF7Gh1Gfhk-75" value="id: String" style="text;align=left;verticalAlign=top;  spacingLeft=4;spacingRight=4;overflow=hidden;rotatable=0;  points=[[0,0.5],[1,0.5]];portConstraint=eastwest;fillColor=#F45B69;strokeColor=#028090;fontColor=#E4FDE1;rounded=1;" parent="7WRl4GNoLDAF7Gh1Gfhk-1" vertex="1"><mxGeometry y="23" width="160" height="26" as="geometry"/></mxCell><mxCell id="7WRl4GNoLDAF7Gh1Gfhk-2" value="name: String" style="text;align=left;verticalAlign=top;  spacingLeft=4;spacingRight=4;overflow=hidden;rotatable=0;  points=[[0,0.5],[1,0.5]];portConstraint=eastwest;fontColor=#E4FDE1;rounded=1;" parent="7WRl4GNoLDAF7Gh1Gfhk-1" vertex="1"><mxGeometry y="49" width="160" height="26" as="geometry"/></mxCell><mxCell id="7WRl4GNoLDAF7Gh1Gfhk-3" value="brand: String" style="text;align=left;verticalAlign=top;  spacingLeft=4;spacingRight=4;overflow=hidden;  rotatable=0;points=[[0,0.5],[1,0.5]];  portConstraint=eastwest;rounded=1;shadow=0;html=0;fontColor=#E4FDE1;" parent="7WRl4GNoLDAF7Gh1Gfhk-1" vertex="1"><mxGeometry y="75" width="160" height="26" as="geometry"/></mxCell><mxCell id="7WRl4GNoLDAF7Gh1Gfhk-53" value="type: MachineryType" style="text;align=left;  verticalAlign=top;spacingLeft=4;spacingRight=4;  overflow=hidden;rotatable=0;points=[[0,0.5],[1,0.5]];  portConstraint=eastwest;rounded=1;shadow=0;html=0;fontColor=#E4FDE1;" parent="7WRl4GNoLDAF7Gh1Gfhk-1" vertex="1"><mxGeometry y="101" width="160" height="26" as="geometry"/></mxCell><mxCell id="7WRl4GNoLDAF7Gh1Gfhk-6" value="status: MachineryStatus" style="text;align=left;  verticalAlign=top;spacingLeft=4;spacingRight=4;  overflow=hidden;rotatable=0;points=[[0,0.5],[1,0.5]];  portConstraint=eastwest;rounded=1;shadow=0;html=0;fontColor=#E4FDE1;" parent="7WRl4GNoLDAF7Gh1Gfhk-1" vertex="1"><mxGeometry y="127" width="160" height="26" as="geometry"/></mxCell><mxCell id="7WRl4GNoLDAF7Gh1Gfhk-4" value="color: String" style="text;align=left;verticalAlign=top;  spacingLeft=4;spacingRight=4;overflow=hidden;rotatable=0;points=[[0,0.5],[1,0.5]];  portConstraint=eastwest;rounded=1;shadow=0;html=0;fontColor=#E4FDE1;" parent="7WRl4GNoLDAF7Gh1Gfhk-1" vertex="1"><mxGeometry y="153" width="160" height="26" as="geometry"/></mxCell><mxCell id="7WRl4GNoLDAF7Gh1Gfhk-5" value="chassis: String" style="text;align=left;verticalAlign=top;spacingLeft=4;  spacingRight=4;overflow=hidden;rotatable=0;points=[[0,0.5],[1,0.5]];  portConstraint=eastwest;rounded=1;shadow=0;html=0;fontColor=#E4FDE1;" parent="7WRl4GNoLDAF7Gh1Gfhk-1" vertex="1"><mxGeometry y="179" width="160" height="26" as="geometry"/></mxCell><mxCell id="7WRl4GNoLDAF7Gh1Gfhk-46" value="mileage: int" style="text;align=left;  verticalAlign=top;spacingLeft=4;spacingRight=4;overflow=hidden;rotatable=0;  points=[[0,0.5],[1,0.5]];portConstraint=eastwest;rounded=1;shadow=0;html=0;fontColor=#E4FDE1;" parent="7WRl4GNoLDAF7Gh1Gfhk-1" vertex="1"><mxGeometry y="205" width="160" height="26" as="geometry"/></mxCell><mxCell id="7WRl4GNoLDAF7Gh1Gfhk-45" value="releaseYear: int" style="text;align=left;verticalAlign=top;spacingLeft=4;  spacingRight=4;overflow=hidden;rotatable=0;points=[[0,0.5],[1,0.5]];  portConstraint=eastwest;rounded=1;shadow=0;html=0;fontColor=#E4FDE1;" parent="7WRl4GNoLDAF7Gh1Gfhk-1" vertex="1"><mxGeometry y="231" width="160" height="26" as="geometry"/></mxCell><mxCell id="7WRl4GNoLDAF7Gh1Gfhk-88" value="buying: Buying" style="text;align=left;verticalAlign=top;spacingLeft=4;spacingRight=4;overflow=hidden;rotatable=0;points=[[0,0.5],[1,0.5]];portConstraint=eastwest;rounded=1;shadow=0;html=0;fontColor=#E4FDE1;" parent="7WRl4GNoLDAF7Gh1Gfhk-1" vertex="1"><mxGeometry y="257" width="160" height="26" as="geometry"/></mxCell><mxCell id="7WRl4GNoLDAF7Gh1Gfhk-47" value="photos: List&lt;Photo&gt;" style="text;align=left;verticalAlign=top;spacingLeft=4;spacingRight=4;overflow=hidden;rotatable=0;points=[[0,0.5],[1,0.5]];portConstraint=eastwest;rounded=1;shadow=0;html=0;fontColor=#E4FDE1;" parent="7WRl4GNoLDAF7Gh1Gfhk-1" vertex="1"><mxGeometry y="283" width="160" height="26" as="geometry"/></mxCell><mxCell id="7WRl4GNoLDAF7Gh1Gfhk-7" value="" style="line;html=1;strokeWidth=1;align=left;verticalAlign=middle;spacingTop=-1;spacingLeft=3;spacingRight=3;rotatable=0;labelPosition=right;points=[];portConstraint=eastwest;labelBackgroundColor=#114B5F;fillColor=#F45B69;strokeColor=#028090;fontColor=#E4FDE1;rounded=1;" parent="7WRl4GNoLDAF7Gh1Gfhk-1" vertex="1"><mxGeometry y="309" width="160" height="8" as="geometry"/></mxCell><mxCell id="7WRl4GNoLDAF7Gh1Gfhk-9" value="+ isLeased(): boolean" style="text;align=left;verticalAlign=top;spacingLeft=4;spacingRight=4;overflow=hidden;rotatable=0;points=[[0,0.5],[1,0.5]];portConstraint=eastwest;fontColor=#E4FDE1;rounded=1;" parent="7WRl4GNoLDAF7Gh1Gfhk-1" vertex="1"><mxGeometry y="317" width="160" height="26" as="geometry"/></mxCell><mxCell id="jWOEPVhLlL-7WFpLvR6w-1" value="+ validate(): void" style="text;align=left;verticalAlign=top;spacingLeft=4;spacingRight=4;overflow=hidden;rotatable=0;points=[[0,0.5],[1,0.5]];portConstraint=eastwest;fontColor=#E4FDE1;rounded=1;" parent="7WRl4GNoLDAF7Gh1Gfhk-1" vertex="1"><mxGeometry y="343" width="160" height="26" as="geometry"/></mxCell><mxCell id="7WRl4GNoLDAF7Gh1Gfhk-16" value="MachineryStatus" style="swimlane;fontStyle=0;childLayout=stackLayout;horizontal=1;startSize=20;fillColor=#FFFF66;horizontalStack=0;resizeParent=1;resizeParentMax=0;resizeLast=0;collapsible=1;marginBottom=0;strokeColor=#d6b656;rounded=1;shadow=1;glass=1;gradientColor=#ffd966;" parent="1" vertex="1"><mxGeometry x="-70" y="10" width="180" height="72" as="geometry"/></mxCell><mxCell id="7WRl4GNoLDAF7Gh1Gfhk-17" value="ACTIVE" style="text;strokeColor=none;fillColor=none;align=left;verticalAlign=top;spacingLeft=4;spacingRight=4;overflow=hidden;rotatable=0;points=[[0,0.5],[1,0.5]];portConstraint=eastwest;fontColor=#E4FDE1;rounded=1;" parent="7WRl4GNoLDAF7Gh1Gfhk-16" vertex="1"><mxGeometry y="20" width="180" height="26" as="geometry"/></mxCell><mxCell id="7WRl4GNoLDAF7Gh1Gfhk-18" value="LEASED" style="text;strokeColor=none;fillColor=none;align=left;verticalAlign=top;spacingLeft=4;spacingRight=4;overflow=hidden;rotatable=0;points=[[0,0.5],[1,0.5]];portConstraint=eastwest;fontColor=#E4FDE1;rounded=1;" parent="7WRl4GNoLDAF7Gh1Gfhk-16" vertex="1"><mxGeometry y="46" width="180" height="26" as="geometry"/></mxCell><mxCell id="7WRl4GNoLDAF7Gh1Gfhk-21" value="Buying" style="swimlane;fontStyle=0;align=center;verticalAlign=top;childLayout=stackLayout;horizontal=1;startSize=26;horizontalStack=0;resizeParent=1;resizeLast=0;collapsible=1;marginBottom=0;rounded=1;shadow=0;strokeWidth=1;fillColor=#dae8fc;strokeColor=#6c8ebf;gradientColor=#7ea6e0;" parent="1" vertex="1"><mxGeometry x="280" y="280" width="160" height="130" as="geometry"><mxRectangle x="550" y="140" width="160" height="26" as="alternateBounds"/></mxGeometry></mxCell><mxCell id="7WRl4GNoLDAF7Gh1Gfhk-22" value="date: LocalDate" style="text;align=left;verticalAlign=top;spacingLeft=4;spacingRight=4;overflow=hidden;rotatable=0;points=[[0,0.5],[1,0.5]];portConstraint=eastwest;fontColor=#E4FDE1;rounded=1;" parent="7WRl4GNoLDAF7Gh1Gfhk-21" vertex="1"><mxGeometry y="26" width="160" height="26" as="geometry"/></mxCell><mxCell id="7WRl4GNoLDAF7Gh1Gfhk-23" value="price: int" style="text;align=left;verticalAlign=top;spacingLeft=4;spacingRight=4;overflow=hidden;rotatable=0;points=[[0,0.5],[1,0.5]];portConstraint=eastwest;rounded=1;shadow=0;html=0;fontColor=#E4FDE1;" parent="7WRl4GNoLDAF7Gh1Gfhk-21" vertex="1"><mxGeometry y="52" width="160" height="26" as="geometry"/></mxCell><mxCell id="7WRl4GNoLDAF7Gh1Gfhk-24" value="source: BuyingSource" style="text;align=left;verticalAlign=top;spacingLeft=4;spacingRight=4;overflow=hidden;rotatable=0;points=[[0,0.5],[1,0.5]];portConstraint=eastwest;rounded=1;shadow=0;html=0;fontColor=#E4FDE1;" parent="7WRl4GNoLDAF7Gh1Gfhk-21" vertex="1"><mxGeometry y="78" width="160" height="26" as="geometry"/></mxCell><mxCell id="3" value="machinery_id: String" style="text;align=left;verticalAlign=top;spacingLeft=4;spacingRight=4;overflow=hidden;rotatable=0;points=[[0,0.5],[1,0.5]];portConstraint=eastwest;rounded=1;shadow=0;html=0;fontColor=#E4FDE1;" parent="7WRl4GNoLDAF7Gh1Gfhk-21" vertex="1"><mxGeometry y="104" width="160" height="26" as="geometry"/></mxCell><mxCell id="7WRl4GNoLDAF7Gh1Gfhk-36" value="BuyingSource" style="swimlane;fontStyle=0;align=center;verticalAlign=top;childLayout=stackLayout;horizontal=1;startSize=26;horizontalStack=0;resizeParent=1;resizeLast=0;collapsible=1;marginBottom=0;rounded=1;shadow=0;strokeWidth=1;fillColor=#FFFF66;strokeColor=#d6b656;gradientColor=#ffd966;" parent="1" vertex="1"><mxGeometry x="490" y="297" width="160" height="80" as="geometry"><mxRectangle x="550" y="140" width="160" height="26" as="alternateBounds"/></mxGeometry></mxCell><mxCell id="7WRl4GNoLDAF7Gh1Gfhk-37" value="VENDOR" style="text;align=left;verticalAlign=top;spacingLeft=4;spacingRight=4;overflow=hidden;rotatable=0;points=[[0,0.5],[1,0.5]];portConstraint=eastwest;fontColor=#E4FDE1;rounded=1;" parent="7WRl4GNoLDAF7Gh1Gfhk-36" vertex="1"><mxGeometry y="26" width="160" height="26" as="geometry"/></mxCell><mxCell id="7WRl4GNoLDAF7Gh1Gfhk-38" value="PRIVATE" style="text;align=left;verticalAlign=top;spacingLeft=4;spacingRight=4;overflow=hidden;rotatable=0;points=[[0,0.5],[1,0.5]];portConstraint=eastwest;rounded=1;shadow=0;html=0;fontColor=#E4FDE1;" parent="7WRl4GNoLDAF7Gh1Gfhk-36" vertex="1"><mxGeometry y="52" width="160" height="26" as="geometry"/></mxCell><mxCell id="7WRl4GNoLDAF7Gh1Gfhk-96" style="edgeStyle=orthogonalEdgeStyle;rounded=1;orthogonalLoop=1;jettySize=auto;html=1;entryX=0;entryY=0.115;entryDx=0;entryDy=0;entryPerimeter=0;fontSize=22;labelBackgroundColor=#114B5F;strokeColor=#028090;fontColor=#E4FDE1;curved=1;" parent="1" source="7WRl4GNoLDAF7Gh1Gfhk-40" target="7WRl4GNoLDAF7Gh1Gfhk-91" edge="1"><mxGeometry relative="1" as="geometry"/></mxCell><mxCell id="7WRl4GNoLDAF7Gh1Gfhk-97" style="edgeStyle=orthogonalEdgeStyle;rounded=1;orthogonalLoop=1;jettySize=auto;html=1;entryX=0.5;entryY=0;entryDx=0;entryDy=0;fontSize=22;labelBackgroundColor=#114B5F;strokeColor=#028090;fontColor=#E4FDE1;curved=1;" parent="1" source="7WRl4GNoLDAF7Gh1Gfhk-40" target="7WRl4GNoLDAF7Gh1Gfhk-58" edge="1"><mxGeometry relative="1" as="geometry"/></mxCell><mxCell id="7WRl4GNoLDAF7Gh1Gfhk-99" style="edgeStyle=orthogonalEdgeStyle;rounded=1;orthogonalLoop=1;jettySize=auto;html=1;fontSize=22;entryX=0.444;entryY=1;entryDx=0;entryDy=0;entryPerimeter=0;labelBackgroundColor=#114B5F;strokeColor=#028090;fontColor=#E4FDE1;curved=1;" parent="1" source="7WRl4GNoLDAF7Gh1Gfhk-40" target="jWOEPVhLlL-7WFpLvR6w-1" edge="1"><mxGeometry relative="1" as="geometry"><mxPoint x="132" y="570" as="targetPoint"/></mxGeometry></mxCell><mxCell id="7WRl4GNoLDAF7Gh1Gfhk-40" value="Lease" style="swimlane;fontStyle=0;align=center;verticalAlign=top;childLayout=stackLayout;horizontal=1;startSize=26;horizontalStack=0;resizeParent=1;resizeLast=0;collapsible=1;marginBottom=0;rounded=1;shadow=0;strokeWidth=1;fillColor=#dae8fc;strokeColor=#6c8ebf;gradientColor=#7ea6e0;" parent="1" vertex="1"><mxGeometry x="52" y="630" width="160" height="220" as="geometry"><mxRectangle x="550" y="140" width="160" height="26" as="alternateBounds"/></mxGeometry></mxCell><mxCell id="7WRl4GNoLDAF7Gh1Gfhk-85" value="id: String" style="text;align=left;verticalAlign=top;spacingLeft=4;spacingRight=4;overflow=hidden;rotatable=0;points=[[0,0.5],[1,0.5]];portConstraint=eastwest;rounded=1;fillColor=#f8cecc;gradientColor=#ea6b66;strokeColor=#b85450;" parent="7WRl4GNoLDAF7Gh1Gfhk-40" vertex="1"><mxGeometry y="26" width="160" height="26" as="geometry"/></mxCell><mxCell id="7WRl4GNoLDAF7Gh1Gfhk-41" value="date: LocalDate" style="text;align=left;verticalAlign=top;spacingLeft=4;spacingRight=4;overflow=hidden;rotatable=0;points=[[0,0.5],[1,0.5]];portConstraint=eastwest;fontColor=#E4FDE1;rounded=1;" parent="7WRl4GNoLDAF7Gh1Gfhk-40" vertex="1"><mxGeometry y="52" width="160" height="26" as="geometry"/></mxCell><mxCell id="7WRl4GNoLDAF7Gh1Gfhk-43" value="lessee: Lessee" style="text;align=left;verticalAlign=top;spacingLeft=4;spacingRight=4;overflow=hidden;rotatable=0;points=[[0,0.5],[1,0.5]];portConstraint=eastwest;rounded=1;shadow=0;html=0;fontColor=#E4FDE1;" parent="7WRl4GNoLDAF7Gh1Gfhk-40" vertex="1"><mxGeometry y="78" width="160" height="26" as="geometry"/></mxCell><mxCell id="7WRl4GNoLDAF7Gh1Gfhk-84" value="lessor: Lessor" style="text;align=left;verticalAlign=top;spacingLeft=4;spacingRight=4;overflow=hidden;rotatable=0;points=[[0,0.5],[1,0.5]];portConstraint=eastwest;rounded=1;shadow=0;html=0;fontColor=#E4FDE1;" parent="7WRl4GNoLDAF7Gh1Gfhk-40" vertex="1"><mxGeometry y="104" width="160" height="26" as="geometry"/></mxCell><mxCell id="7WRl4GNoLDAF7Gh1Gfhk-86" value="machinery: Machinery" style="text;align=left;verticalAlign=top;spacingLeft=4;spacingRight=4;overflow=hidden;rotatable=0;points=[[0,0.5],[1,0.5]];portConstraint=eastwest;rounded=1;shadow=0;html=0;fontColor=#E4FDE1;" parent="7WRl4GNoLDAF7Gh1Gfhk-40" vertex="1"><mxGeometry y="130" width="160" height="26" as="geometry"/></mxCell><mxCell id="TRoY8cJy5XEIKivQMF8h-12" value="" style="line;strokeWidth=1;fillColor=none;align=left;verticalAlign=middle;spacingTop=-1;spacingLeft=3;spacingRight=3;rotatable=0;labelPosition=right;points=[];portConstraint=eastwest;labelBackgroundColor=#114B5F;strokeColor=#028090;fontColor=#E4FDE1;rounded=1;" parent="7WRl4GNoLDAF7Gh1Gfhk-40" vertex="1"><mxGeometry y="156" width="160" height="8" as="geometry"/></mxCell><mxCell id="6" value="+ calculateProfit(): int" style="text;align=left;verticalAlign=top;spacingLeft=4;spacingRight=4;overflow=hidden;rotatable=0;points=[[0,0.5],[1,0.5]];portConstraint=eastwest;rounded=1;shadow=0;html=0;fontColor=#E4FDE1;" parent="7WRl4GNoLDAF7Gh1Gfhk-40" vertex="1"><mxGeometry y="164" width="160" height="26" as="geometry"/></mxCell><mxCell id="jWOEPVhLlL-7WFpLvR6w-5" value="+ validate(): void" style="text;align=left;verticalAlign=top;spacingLeft=4;spacingRight=4;overflow=hidden;rotatable=0;points=[[0,0.5],[1,0.5]];portConstraint=eastwest;rounded=1;shadow=0;html=0;fontColor=#E4FDE1;" parent="7WRl4GNoLDAF7Gh1Gfhk-40" vertex="1"><mxGeometry y="190" width="160" height="26" as="geometry"/></mxCell><mxCell id="7WRl4GNoLDAF7Gh1Gfhk-48" value="Photo" style="swimlane;fontStyle=0;align=center;verticalAlign=top;childLayout=stackLayout;horizontal=1;startSize=26;horizontalStack=0;resizeParent=1;resizeLast=0;collapsible=1;marginBottom=0;rounded=1;shadow=0;strokeWidth=1;fillColor=#dae8fc;strokeColor=#6c8ebf;gradientColor=#7ea6e0;" parent="1" vertex="1"><mxGeometry x="280" y="130" width="160" height="104" as="geometry"><mxRectangle x="550" y="140" width="160" height="26" as="alternateBounds"/></mxGeometry></mxCell><mxCell id="7WRl4GNoLDAF7Gh1Gfhk-49" value="description: String" style="text;align=left;verticalAlign=top;spacingLeft=4;spacingRight=4;overflow=hidden;rotatable=0;points=[[0,0.5],[1,0.5]];portConstraint=eastwest;fontColor=#E4FDE1;rounded=1;" parent="7WRl4GNoLDAF7Gh1Gfhk-48" vertex="1"><mxGeometry y="26" width="160" height="26" as="geometry"/></mxCell><mxCell id="7WRl4GNoLDAF7Gh1Gfhk-50" value="url: String" style="text;align=left;verticalAlign=top;spacingLeft=4;spacingRight=4;overflow=hidden;rotatable=0;points=[[0,0.5],[1,0.5]];portConstraint=eastwest;rounded=1;shadow=0;html=0;fontColor=#E4FDE1;" parent="7WRl4GNoLDAF7Gh1Gfhk-48" vertex="1"><mxGeometry y="52" width="160" height="26" as="geometry"/></mxCell><mxCell id="4" value="machinery_id: String" style="text;align=left;verticalAlign=top;spacingLeft=4;spacingRight=4;overflow=hidden;rotatable=0;points=[[0,0.5],[1,0.5]];portConstraint=eastwest;rounded=1;shadow=0;html=0;fontColor=#E4FDE1;" parent="7WRl4GNoLDAF7Gh1Gfhk-48" vertex="1"><mxGeometry y="78" width="160" height="26" as="geometry"/></mxCell><mxCell id="7WRl4GNoLDAF7Gh1Gfhk-54" value="MachineryType" style="swimlane;fontStyle=0;childLayout=stackLayout;horizontal=1;startSize=26;fillColor=#FFFF66;horizontalStack=0;resizeParent=1;resizeParentMax=0;resizeLast=0;collapsible=1;marginBottom=0;strokeColor=#d6b656;rounded=1;gradientColor=#ffd966;" parent="1" vertex="1"><mxGeometry x="240" y="10" width="140" height="104" as="geometry"/></mxCell><mxCell id="7WRl4GNoLDAF7Gh1Gfhk-55" value="DOZER" style="text;strokeColor=none;fillColor=none;align=left;verticalAlign=top;spacingLeft=4;spacingRight=4;overflow=hidden;rotatable=0;points=[[0,0.5],[1,0.5]];portConstraint=eastwest;fontColor=#E4FDE1;rounded=1;" parent="7WRl4GNoLDAF7Gh1Gfhk-54" vertex="1"><mxGeometry y="26" width="140" height="26" as="geometry"/></mxCell><mxCell id="7WRl4GNoLDAF7Gh1Gfhk-56" value="GRADER" style="text;strokeColor=none;fillColor=none;align=left;verticalAlign=top;spacingLeft=4;spacingRight=4;overflow=hidden;rotatable=0;points=[[0,0.5],[1,0.5]];portConstraint=eastwest;fontColor=#E4FDE1;rounded=1;" parent="7WRl4GNoLDAF7Gh1Gfhk-54" vertex="1"><mxGeometry y="52" width="140" height="26" as="geometry"/></mxCell><mxCell id="7WRl4GNoLDAF7Gh1Gfhk-57" value="SUV" style="text;strokeColor=none;fillColor=none;align=left;verticalAlign=top;spacingLeft=4;spacingRight=4;overflow=hidden;rotatable=0;points=[[0,0.5],[1,0.5]];portConstraint=eastwest;fontColor=#E4FDE1;rounded=1;" parent="7WRl4GNoLDAF7Gh1Gfhk-54" vertex="1"><mxGeometry y="78" width="140" height="26" as="geometry"/></mxCell><mxCell id="7WRl4GNoLDAF7Gh1Gfhk-58" value="Lessor" style="swimlane;fontStyle=0;align=center;verticalAlign=top;childLayout=stackLayout;horizontal=1;startSize=26;horizontalStack=0;resizeParent=1;resizeLast=0;collapsible=1;marginBottom=0;rounded=1;shadow=0;strokeWidth=1;fillColor=#dae8fc;strokeColor=#6c8ebf;gradientColor=#7ea6e0;" parent="1" vertex="1"><mxGeometry x="52" y="900" width="160" height="216" as="geometry"><mxRectangle x="550" y="140" width="160" height="26" as="alternateBounds"/></mxGeometry></mxCell><mxCell id="2" value="id: String" style="text;align=left;verticalAlign=top;spacingLeft=4;spacingRight=4;overflow=hidden;rotatable=0;points=[[0,0.5],[1,0.5]];portConstraint=eastwest;rounded=1;fillColor=#f8cecc;gradientColor=#ea6b66;strokeColor=#b85450;" parent="7WRl4GNoLDAF7Gh1Gfhk-58" vertex="1"><mxGeometry y="26" width="160" height="26" as="geometry"/></mxCell><mxCell id="7WRl4GNoLDAF7Gh1Gfhk-59" value="name: String" style="text;align=left;verticalAlign=top;spacingLeft=4;spacingRight=4;overflow=hidden;rotatable=0;points=[[0,0.5],[1,0.5]];portConstraint=eastwest;fontColor=#E4FDE1;rounded=1;" parent="7WRl4GNoLDAF7Gh1Gfhk-58" vertex="1"><mxGeometry y="52" width="160" height="26" as="geometry"/></mxCell><mxCell id="7WRl4GNoLDAF7Gh1Gfhk-60" value="email: String" style="text;align=left;verticalAlign=top;spacingLeft=4;spacingRight=4;overflow=hidden;rotatable=0;points=[[0,0.5],[1,0.5]];portConstraint=eastwest;rounded=1;shadow=0;html=0;fontColor=#E4FDE1;" parent="7WRl4GNoLDAF7Gh1Gfhk-58" vertex="1"><mxGeometry y="78" width="160" height="26" as="geometry"/></mxCell><mxCell id="7WRl4GNoLDAF7Gh1Gfhk-61" value="status: LessorStatus" style="text;align=left;verticalAlign=top;spacingLeft=4;spacingRight=4;overflow=hidden;rotatable=0;points=[[0,0.5],[1,0.5]];portConstraint=eastwest;rounded=1;shadow=0;html=0;fontColor=#E4FDE1;" parent="7WRl4GNoLDAF7Gh1Gfhk-58" vertex="1"><mxGeometry y="104" width="160" height="26" as="geometry"/></mxCell><mxCell id="7WRl4GNoLDAF7Gh1Gfhk-62" value="joinDate: LocalDate" style="text;align=left;verticalAlign=top;spacingLeft=4;spacingRight=4;overflow=hidden;rotatable=0;points=[[0,0.5],[1,0.5]];portConstraint=eastwest;rounded=1;shadow=0;html=0;fontColor=#E4FDE1;" parent="7WRl4GNoLDAF7Gh1Gfhk-58" vertex="1"><mxGeometry y="130" width="160" height="26" as="geometry"/></mxCell><mxCell id="7WRl4GNoLDAF7Gh1Gfhk-68" value="" style="line;html=1;strokeWidth=1;align=left;verticalAlign=middle;spacingTop=-1;spacingLeft=3;spacingRight=3;rotatable=0;labelPosition=right;points=[];portConstraint=eastwest;labelBackgroundColor=#114B5F;fillColor=#F45B69;strokeColor=#028090;fontColor=#E4FDE1;rounded=1;" parent="7WRl4GNoLDAF7Gh1Gfhk-58" vertex="1"><mxGeometry y="156" width="160" height="8" as="geometry"/></mxCell><mxCell id="7WRl4GNoLDAF7Gh1Gfhk-69" value="+ isActive(): boolean" style="text;align=left;verticalAlign=top;spacingLeft=4;spacingRight=4;overflow=hidden;rotatable=0;points=[[0,0.5],[1,0.5]];portConstraint=eastwest;fontColor=#E4FDE1;rounded=1;" parent="7WRl4GNoLDAF7Gh1Gfhk-58" vertex="1"><mxGeometry y="164" width="160" height="26" as="geometry"/></mxCell><mxCell id="jWOEPVhLlL-7WFpLvR6w-2" value="+ validate(): void" style="text;align=left;verticalAlign=top;spacingLeft=4;spacingRight=4;overflow=hidden;rotatable=0;points=[[0,0.5],[1,0.5]];portConstraint=eastwest;fontColor=#E4FDE1;rounded=1;" parent="7WRl4GNoLDAF7Gh1Gfhk-58" vertex="1"><mxGeometry y="190" width="160" height="26" as="geometry"/></mxCell><mxCell id="7WRl4GNoLDAF7Gh1Gfhk-72" value="LessorStatus" style="swimlane;fontStyle=0;align=center;verticalAlign=top;childLayout=stackLayout;horizontal=1;startSize=26;horizontalStack=0;resizeParent=1;resizeLast=0;collapsible=1;marginBottom=0;rounded=1;shadow=0;strokeWidth=1;fillColor=#FFFF66;strokeColor=#d6b656;gradientColor=#ffd966;" parent="1" vertex="1"><mxGeometry x="300" y="962" width="160" height="80" as="geometry"><mxRectangle x="550" y="140" width="160" height="26" as="alternateBounds"/></mxGeometry></mxCell><mxCell id="7WRl4GNoLDAF7Gh1Gfhk-73" value="ACTIVE" style="text;align=left;verticalAlign=top;spacingLeft=4;spacingRight=4;overflow=hidden;rotatable=0;points=[[0,0.5],[1,0.5]];portConstraint=eastwest;fontColor=#E4FDE1;rounded=1;" parent="7WRl4GNoLDAF7Gh1Gfhk-72" vertex="1"><mxGeometry y="26" width="160" height="26" as="geometry"/></mxCell><mxCell id="7WRl4GNoLDAF7Gh1Gfhk-74" value="INACTIVE" style="text;align=left;verticalAlign=top;spacingLeft=4;spacingRight=4;overflow=hidden;rotatable=0;points=[[0,0.5],[1,0.5]];portConstraint=eastwest;rounded=1;shadow=0;html=0;fontColor=#E4FDE1;" parent="7WRl4GNoLDAF7Gh1Gfhk-72" vertex="1"><mxGeometry y="52" width="160" height="26" as="geometry"/></mxCell><mxCell id="7WRl4GNoLDAF7Gh1Gfhk-76" style="edgeStyle=orthogonalEdgeStyle;rounded=1;orthogonalLoop=1;jettySize=auto;html=1;entryX=0.006;entryY=0.115;entryDx=0;entryDy=0;entryPerimeter=0;labelBackgroundColor=#114B5F;strokeColor=#028090;fontColor=#E4FDE1;curved=1;" parent="1" source="7WRl4GNoLDAF7Gh1Gfhk-61" target="7WRl4GNoLDAF7Gh1Gfhk-74" edge="1"><mxGeometry relative="1" as="geometry"/></mxCell><mxCell id="7WRl4GNoLDAF7Gh1Gfhk-79" value="" style="endArrow=classic;html=1;rounded=1;entryX=0;entryY=0.5;entryDx=0;entryDy=0;labelBackgroundColor=#114B5F;strokeColor=#028090;fontColor=#E4FDE1;curved=1;" parent="1" target="7WRl4GNoLDAF7Gh1Gfhk-56" edge="1"><mxGeometry width="50" height="50" relative="1" as="geometry"><mxPoint x="180" y="160" as="sourcePoint"/><mxPoint x="220" y="110" as="targetPoint"/></mxGeometry></mxCell><mxCell id="7WRl4GNoLDAF7Gh1Gfhk-80" value="" style="endArrow=classic;html=1;rounded=1;exitX=0.994;exitY=0.769;exitDx=0;exitDy=0;exitPerimeter=0;entryX=-0.006;entryY=0.038;entryDx=0;entryDy=0;entryPerimeter=0;labelBackgroundColor=#114B5F;strokeColor=#028090;fontColor=#E4FDE1;curved=1;" parent="1" source="7WRl4GNoLDAF7Gh1Gfhk-53" target="7WRl4GNoLDAF7Gh1Gfhk-23" edge="1"><mxGeometry width="50" height="50" relative="1" as="geometry"><mxPoint x="250" y="250" as="sourcePoint"/><mxPoint x="300" y="200" as="targetPoint"/></mxGeometry></mxCell><mxCell id="7WRl4GNoLDAF7Gh1Gfhk-82" value="" style="endArrow=classic;html=1;rounded=1;exitX=1;exitY=0.5;exitDx=0;exitDy=0;entryX=0;entryY=0.5;entryDx=0;entryDy=0;labelBackgroundColor=#114B5F;strokeColor=#028090;fontColor=#E4FDE1;curved=1;" parent="1" source="7WRl4GNoLDAF7Gh1Gfhk-75" target="7WRl4GNoLDAF7Gh1Gfhk-49" edge="1"><mxGeometry width="50" height="50" relative="1" as="geometry"><mxPoint x="240" y="240" as="sourcePoint"/><mxPoint x="290" y="190" as="targetPoint"/></mxGeometry></mxCell><mxCell id="7WRl4GNoLDAF7Gh1Gfhk-83" value="*" style="text;align=center;fontStyle=1;verticalAlign=middle;spacingLeft=3;spacingRight=3;strokeColor=none;rotatable=0;points=[[0,0.5],[1,0.5]];portConstraint=eastwest;fontSize=22;fontColor=#E4FDE1;rounded=1;" parent="1" vertex="1"><mxGeometry x="220" y="150" width="90" height="33" as="geometry"/></mxCell><mxCell id="7WRl4GNoLDAF7Gh1Gfhk-87" value="" style="endArrow=classic;html=1;rounded=1;exitX=1;exitY=0.154;exitDx=0;exitDy=0;exitPerimeter=0;entryX=0;entryY=0.5;entryDx=0;entryDy=0;labelBackgroundColor=#114B5F;strokeColor=#028090;fontColor=#E4FDE1;curved=1;" parent="1" source="7WRl4GNoLDAF7Gh1Gfhk-23" target="7WRl4GNoLDAF7Gh1Gfhk-37" edge="1"><mxGeometry width="50" height="50" relative="1" as="geometry"><mxPoint x="460" y="341.004" as="sourcePoint"/><mxPoint x="520" y="339.99800000000005" as="targetPoint"/></mxGeometry></mxCell><mxCell id="7WRl4GNoLDAF7Gh1Gfhk-89" value="Lessee" style="swimlane;fontStyle=0;align=center;verticalAlign=top;childLayout=stackLayout;horizontal=1;startSize=26;horizontalStack=0;resizeParent=1;resizeLast=0;collapsible=1;marginBottom=0;rounded=1;shadow=0;strokeWidth=1;fillColor=#dae8fc;strokeColor=#6c8ebf;gradientColor=#7ea6e0;" parent="1" vertex="1"><mxGeometry x="300" y="659" width="160" height="130" as="geometry"><mxRectangle x="550" y="140" width="160" height="26" as="alternateBounds"/></mxGeometry></mxCell><mxCell id="7" value="lease_id: String" style="text;align=left;verticalAlign=top;spacingLeft=4;spacingRight=4;overflow=hidden;rotatable=0;points=[[0,0.5],[1,0.5]];portConstraint=eastwest;rounded=1;fillColor=#f8cecc;gradientColor=#ea6b66;strokeColor=#b85450;" parent="7WRl4GNoLDAF7Gh1Gfhk-89" vertex="1"><mxGeometry y="26" width="160" height="26" as="geometry"/></mxCell><mxCell id="7WRl4GNoLDAF7Gh1Gfhk-90" value="name: String" style="text;align=left;verticalAlign=top;spacingLeft=4;spacingRight=4;overflow=hidden;rotatable=0;points=[[0,0.5],[1,0.5]];portConstraint=eastwest;fontColor=#E4FDE1;rounded=1;" parent="7WRl4GNoLDAF7Gh1Gfhk-89" vertex="1"><mxGeometry y="52" width="160" height="26" as="geometry"/></mxCell><mxCell id="7WRl4GNoLDAF7Gh1Gfhk-91" value="email: String" style="text;align=left;verticalAlign=top;spacingLeft=4;spacingRight=4;overflow=hidden;rotatable=0;points=[[0,0.5],[1,0.5]];portConstraint=eastwest;rounded=1;shadow=0;html=0;fontColor=#E4FDE1;" parent="7WRl4GNoLDAF7Gh1Gfhk-89" vertex="1"><mxGeometry y="78" width="160" height="26" as="geometry"/></mxCell><mxCell id="7WRl4GNoLDAF7Gh1Gfhk-92" value="phone: String" style="text;align=left;verticalAlign=top;spacingLeft=4;spacingRight=4;overflow=hidden;rotatable=0;points=[[0,0.5],[1,0.5]];portConstraint=eastwest;rounded=1;shadow=0;html=0;fontColor=#E4FDE1;" parent="7WRl4GNoLDAF7Gh1Gfhk-89" vertex="1"><mxGeometry y="104" width="160" height="26" as="geometry"/></mxCell><mxCell id="7WRl4GNoLDAF7Gh1Gfhk-98" value="*" style="text;align=center;fontStyle=1;verticalAlign=middle;spacingLeft=3;spacingRight=3;strokeColor=none;rotatable=0;points=[[0,0.5],[1,0.5]];portConstraint=eastwest;fontSize=22;fontColor=#E4FDE1;rounded=1;" parent="1" vertex="1"><mxGeometry x="95" y="843" width="90" height="33" as="geometry"/></mxCell><mxCell id="7WRl4GNoLDAF7Gh1Gfhk-100" value="*" style="text;align=center;fontStyle=1;verticalAlign=middle;spacingLeft=3;spacingRight=3;strokeColor=none;rotatable=0;points=[[0,0.5],[1,0.5]];portConstraint=eastwest;fontSize=22;fontColor=#E4FDE1;rounded=1;" parent="1" vertex="1"><mxGeometry x="95" y="600" width="90" height="33" as="geometry"/></mxCell><mxCell id="TRoY8cJy5XEIKivQMF8h-6" style="edgeStyle=orthogonalEdgeStyle;rounded=1;orthogonalLoop=1;jettySize=auto;html=1;entryX=-0.006;entryY=0.808;entryDx=0;entryDy=0;entryPerimeter=0;labelBackgroundColor=#114B5F;strokeColor=#028090;fontColor=#E4FDE1;curved=1;" parent="1" source="TRoY8cJy5XEIKivQMF8h-1" target="7WRl4GNoLDAF7Gh1Gfhk-53" edge="1"><mxGeometry relative="1" as="geometry"/></mxCell><mxCell id="TRoY8cJy5XEIKivQMF8h-1" value="MachineryService" style="swimlane;fontStyle=0;childLayout=stackLayout;horizontal=1;startSize=26;fillColor=#FF8000;horizontalStack=0;resizeParent=1;resizeParentMax=0;resizeLast=0;collapsible=1;marginBottom=0;strokeColor=#d79b00;rounded=1;gradientColor=#ffa500;" parent="1" vertex="1"><mxGeometry x="-450" y="220" width="400" height="130" as="geometry"/></mxCell><mxCell id="TRoY8cJy5XEIKivQMF8h-3" value="+ getMachines(): List&lt;Machinery&gt;" style="text;strokeColor=none;fillColor=none;align=left;verticalAlign=top;spacingLeft=4;spacingRight=4;overflow=hidden;rotatable=0;points=[[0,0.5],[1,0.5]];portConstraint=eastwest;fontColor=#E4FDE1;rounded=1;" parent="TRoY8cJy5XEIKivQMF8h-1" vertex="1"><mxGeometry y="26" width="400" height="26" as="geometry"/></mxCell><mxCell id="TRoY8cJy5XEIKivQMF8h-4" value="+ getMachinery(String machinery_id): Machinery" style="text;strokeColor=none;fillColor=none;align=left;verticalAlign=top;spacingLeft=4;spacingRight=4;overflow=hidden;rotatable=0;points=[[0,0.5],[1,0.5]];portConstraint=eastwest;fontColor=#E4FDE1;rounded=1;" parent="TRoY8cJy5XEIKivQMF8h-1" vertex="1"><mxGeometry y="52" width="400" height="26" as="geometry"/></mxCell><mxCell id="TRoY8cJy5XEIKivQMF8h-2" value="+ createMachinery(Machinery machinery): Machinery" style="text;strokeColor=none;fillColor=none;align=left;verticalAlign=top;spacingLeft=4;spacingRight=4;overflow=hidden;rotatable=0;points=[[0,0.5],[1,0.5]];portConstraint=eastwest;fontColor=#E4FDE1;rounded=1;" parent="TRoY8cJy5XEIKivQMF8h-1" vertex="1"><mxGeometry y="78" width="400" height="26" as="geometry"/></mxCell><mxCell id="TRoY8cJy5XEIKivQMF8h-5" value="+ updateMachinery(String Machinery_id, MachinerynewMachinery): void" style="text;strokeColor=none;fillColor=none;align=left;verticalAlign=top;spacingLeft=4;spacingRight=4;overflow=hidden;rotatable=0;points=[[0,0.5],[1,0.5]];portConstraint=eastwest;fontColor=#E4FDE1;rounded=1;" parent="TRoY8cJy5XEIKivQMF8h-1" vertex="1"><mxGeometry y="104" width="400" height="26" as="geometry"/></mxCell><mxCell id="TRoY8cJy5XEIKivQMF8h-14" style="edgeStyle=orthogonalEdgeStyle;rounded=1;orthogonalLoop=1;jettySize=auto;html=1;entryX=0.019;entryY=-0.077;entryDx=0;entryDy=0;entryPerimeter=0;labelBackgroundColor=#114B5F;strokeColor=#028090;fontColor=#E4FDE1;curved=1;" parent="1" source="TRoY8cJy5XEIKivQMF8h-8" target="7WRl4GNoLDAF7Gh1Gfhk-84" edge="1"><mxGeometry relative="1" as="geometry"/></mxCell><mxCell id="TRoY8cJy5XEIKivQMF8h-8" value="LeaseService" style="swimlane;fontStyle=0;childLayout=stackLayout;horizontal=1;startSize=26;fillColor=#FF8000;horizontalStack=0;resizeParent=1;resizeParentMax=0;resizeLast=0;collapsible=1;marginBottom=0;strokeColor=#d79b00;rounded=1;gradientColor=#ffa500;" parent="1" vertex="1"><mxGeometry x="-470" y="680" width="420" height="104" as="geometry"/></mxCell><mxCell id="TRoY8cJy5XEIKivQMF8h-9" value="+ registerNewLease(LeaseNote leaseNote): Lease" style="text;strokeColor=none;fillColor=none;align=left;verticalAlign=top;spacingLeft=4;spacingRight=4;overflow=hidden;rotatable=0;points=[[0,0.5],[1,0.5]];portConstraint=eastwest;fontColor=#E4FDE1;rounded=1;" parent="TRoY8cJy5XEIKivQMF8h-8" vertex="1"><mxGeometry y="26" width="420" height="26" as="geometry"/></mxCell><mxCell id="TRoY8cJy5XEIKivQMF8h-10" value="+ getLeases(): List&lt;Lease&gt;" style="text;strokeColor=none;fillColor=none;align=left;verticalAlign=top;spacingLeft=4;spacingRight=4;overflow=hidden;rotatable=0;points=[[0,0.5],[1,0.5]];portConstraint=eastwest;fontColor=#E4FDE1;rounded=1;" parent="TRoY8cJy5XEIKivQMF8h-8" vertex="1"><mxGeometry y="52" width="420" height="26" as="geometry"/></mxCell><mxCell id="TRoY8cJy5XEIKivQMF8h-11" value="+ getLease(String lease_id): Lease" style="text;strokeColor=none;fillColor=none;align=left;verticalAlign=top;spacingLeft=4;spacingRight=4;overflow=hidden;rotatable=0;points=[[0,0.5],[1,0.5]];portConstraint=eastwest;fontColor=#E4FDE1;rounded=1;" parent="TRoY8cJy5XEIKivQMF8h-8" vertex="1"><mxGeometry y="78" width="420" height="26" as="geometry"/></mxCell><mxCell id="TRoY8cJy5XEIKivQMF8h-15" value="" style="endArrow=classic;html=1;rounded=1;exitX=0.5;exitY=0;exitDx=0;exitDy=0;entryX=-0.006;entryY=0.923;entryDx=0;entryDy=0;entryPerimeter=0;labelBackgroundColor=#114B5F;strokeColor=#028090;fontColor=#E4FDE1;curved=1;" parent="1" source="TRoY8cJy5XEIKivQMF8h-8" target="7WRl4GNoLDAF7Gh1Gfhk-53" edge="1"><mxGeometry width="50" height="50" relative="1" as="geometry"><mxPoint x="-230" y="620" as="sourcePoint"/><mxPoint x="-180" y="570" as="targetPoint"/></mxGeometry></mxCell><mxCell id="TRoY8cJy5XEIKivQMF8h-16" value="" style="endArrow=classic;html=1;rounded=1;exitX=0.468;exitY=1.077;exitDx=0;exitDy=0;exitPerimeter=0;entryX=0;entryY=0.5;entryDx=0;entryDy=0;labelBackgroundColor=#114B5F;strokeColor=#028090;fontColor=#E4FDE1;curved=1;" parent="1" source="TRoY8cJy5XEIKivQMF8h-11" target="7WRl4GNoLDAF7Gh1Gfhk-61" edge="1"><mxGeometry width="50" height="50" relative="1" as="geometry"><mxPoint x="-190" y="890" as="sourcePoint"/><mxPoint x="-140" y="840" as="targetPoint"/></mxGeometry></mxCell><mxCell id="TRoY8cJy5XEIKivQMF8h-22" style="edgeStyle=orthogonalEdgeStyle;rounded=1;orthogonalLoop=1;jettySize=auto;html=1;entryX=0;entryY=0.5;entryDx=0;entryDy=0;labelBackgroundColor=#114B5F;strokeColor=#028090;fontColor=#E4FDE1;curved=1;" parent="1" source="TRoY8cJy5XEIKivQMF8h-17" target="7WRl4GNoLDAF7Gh1Gfhk-61" edge="1"><mxGeometry relative="1" as="geometry"/></mxCell><mxCell id="TRoY8cJy5XEIKivQMF8h-17" value="LessorService" style="swimlane;fontStyle=0;childLayout=stackLayout;horizontal=1;startSize=26;fillColor=#FF8000;horizontalStack=0;resizeParent=1;resizeParentMax=0;resizeLast=0;collapsible=1;marginBottom=0;strokeColor=#d79b00;rounded=1;gradientColor=#ffa500;" parent="1" vertex="1"><mxGeometry x="-440" y="952" width="330" height="130" as="geometry"/></mxCell><mxCell id="TRoY8cJy5XEIKivQMF8h-19" value="+ getLessors(): List&lt;Lessor&gt;" style="text;strokeColor=none;fillColor=none;align=left;verticalAlign=top;spacingLeft=4;spacingRight=4;overflow=hidden;rotatable=0;points=[[0,0.5],[1,0.5]];portConstraint=eastwest;fontColor=#E4FDE1;rounded=1;" parent="TRoY8cJy5XEIKivQMF8h-17" vertex="1"><mxGeometry y="26" width="330" height="26" as="geometry"/></mxCell><mxCell id="TRoY8cJy5XEIKivQMF8h-20" value="+ getLessor(String lessor_id): Lessor" style="text;strokeColor=none;fillColor=none;align=left;verticalAlign=top;spacingLeft=4;spacingRight=4;overflow=hidden;rotatable=0;points=[[0,0.5],[1,0.5]];portConstraint=eastwest;fontColor=#E4FDE1;rounded=1;" parent="TRoY8cJy5XEIKivQMF8h-17" vertex="1"><mxGeometry y="52" width="330" height="26" as="geometry"/></mxCell><mxCell id="TRoY8cJy5XEIKivQMF8h-18" value="+ createLessor(Lessor lessor): Lessor" style="text;strokeColor=none;fillColor=none;align=left;verticalAlign=top;spacingLeft=4;spacingRight=4;overflow=hidden;rotatable=0;points=[[0,0.5],[1,0.5]];portConstraint=eastwest;fontColor=#E4FDE1;rounded=1;" parent="TRoY8cJy5XEIKivQMF8h-17" vertex="1"><mxGeometry y="78" width="330" height="26" as="geometry"/></mxCell><mxCell id="TRoY8cJy5XEIKivQMF8h-21" value="+ updateLessor(String lessor_id, Lessor newLessor): void" style="text;strokeColor=none;fillColor=none;align=left;verticalAlign=top;spacingLeft=4;spacingRight=4;overflow=hidden;rotatable=0;points=[[0,0.5],[1,0.5]];portConstraint=eastwest;fontColor=#E4FDE1;rounded=1;" parent="TRoY8cJy5XEIKivQMF8h-17" vertex="1"><mxGeometry y="104" width="330" height="26" as="geometry"/></mxCell><mxCell id="TRoY8cJy5XEIKivQMF8h-23" value="«interface»&lt;br&gt;&lt;b&gt;LessorDao&lt;/b&gt;" style="html=1;fillColor=#99FFFF;strokeColor=#82b366;rounded=1;gradientColor=#97d077;" parent="1" vertex="1"><mxGeometry x="-360" y="834.5" width="110" height="50" as="geometry"/></mxCell><mxCell id="TRoY8cJy5XEIKivQMF8h-25" value="«interface»&lt;br&gt;&lt;b&gt;LeaseDao&lt;/b&gt;" style="html=1;fillColor=#99FFFF;strokeColor=#82b366;rounded=1;gradientColor=#97d077;" parent="1" vertex="1"><mxGeometry x="-400" y="570" width="110" height="50" as="geometry"/></mxCell><mxCell id="TRoY8cJy5XEIKivQMF8h-26" value="" style="endArrow=classic;html=1;rounded=1;exitX=0.302;exitY=0.01;exitDx=0;exitDy=0;entryX=0.5;entryY=1;entryDx=0;entryDy=0;exitPerimeter=0;labelBackgroundColor=#114B5F;strokeColor=#028090;fontColor=#E4FDE1;curved=1;" parent="1" source="TRoY8cJy5XEIKivQMF8h-8" target="TRoY8cJy5XEIKivQMF8h-25" edge="1"><mxGeometry width="50" height="50" relative="1" as="geometry"><mxPoint x="-260" y="840" as="sourcePoint"/><mxPoint x="-210" y="790" as="targetPoint"/></mxGeometry></mxCell><mxCell id="TRoY8cJy5XEIKivQMF8h-27" value="" style="endArrow=classic;html=1;rounded=1;exitX=0.5;exitY=0;exitDx=0;exitDy=0;entryX=0.5;entryY=1;entryDx=0;entryDy=0;labelBackgroundColor=#114B5F;strokeColor=#028090;fontColor=#E4FDE1;curved=1;" parent="1" source="TRoY8cJy5XEIKivQMF8h-17" target="TRoY8cJy5XEIKivQMF8h-23" edge="1"><mxGeometry width="50" height="50" relative="1" as="geometry"><mxPoint x="-200" y="920" as="sourcePoint"/><mxPoint x="-150" y="870" as="targetPoint"/></mxGeometry></mxCell><mxCell id="TRoY8cJy5XEIKivQMF8h-28" value="«interface»&lt;br&gt;&lt;b&gt;MachineryDao&lt;/b&gt;" style="html=1;fillColor=#99FFFF;strokeColor=#82b366;rounded=1;gradientColor=#97d077;" parent="1" vertex="1"><mxGeometry x="-290" y="410" width="110" height="50" as="geometry"/></mxCell><mxCell id="TRoY8cJy5XEIKivQMF8h-29" value="" style="endArrow=classic;html=1;rounded=1;exitX=0.454;exitY=1.038;exitDx=0;exitDy=0;exitPerimeter=0;entryX=0.5;entryY=0;entryDx=0;entryDy=0;labelBackgroundColor=#114B5F;strokeColor=#028090;fontColor=#E4FDE1;curved=1;" parent="1" source="TRoY8cJy5XEIKivQMF8h-5" target="TRoY8cJy5XEIKivQMF8h-28" edge="1"><mxGeometry width="50" height="50" relative="1" as="geometry"><mxPoint x="-130" y="400" as="sourcePoint"/><mxPoint x="-80" y="350" as="targetPoint"/></mxGeometry></mxCell><mxCell id="TRoY8cJy5XEIKivQMF8h-30" value="" style="endArrow=classic;html=1;rounded=1;exitX=0.5;exitY=0;exitDx=0;exitDy=0;entryX=0.5;entryY=1;entryDx=0;entryDy=0;labelBackgroundColor=#114B5F;strokeColor=#028090;fontColor=#E4FDE1;curved=1;" parent="1" source="TRoY8cJy5XEIKivQMF8h-8" target="TRoY8cJy5XEIKivQMF8h-28" edge="1"><mxGeometry width="50" height="50" relative="1" as="geometry"><mxPoint x="-270" y="580" as="sourcePoint"/><mxPoint x="-220" y="530" as="targetPoint"/><Array as="points"><mxPoint x="-220" y="480"/></Array></mxGeometry></mxCell><mxCell id="TRoY8cJy5XEIKivQMF8h-31" value="" style="endArrow=classic;html=1;rounded=1;exitX=0.429;exitY=1.038;exitDx=0;exitDy=0;exitPerimeter=0;entryX=0.5;entryY=0;entryDx=0;entryDy=0;labelBackgroundColor=#114B5F;strokeColor=#028090;fontColor=#E4FDE1;curved=1;" parent="1" source="TRoY8cJy5XEIKivQMF8h-11" target="TRoY8cJy5XEIKivQMF8h-23" edge="1"><mxGeometry width="50" height="50" relative="1" as="geometry"><mxPoint x="-520" y="870" as="sourcePoint"/><mxPoint x="-470" y="820" as="targetPoint"/></mxGeometry></mxCell><mxCell id="TRoY8cJy5XEIKivQMF8h-32" value="LeaseNote" style="swimlane;fontStyle=0;childLayout=stackLayout;horizontal=1;startSize=26;fillColor=#dae8fc;horizontalStack=0;resizeParent=1;resizeParentMax=0;resizeLast=0;collapsible=1;marginBottom=0;strokeColor=#6c8ebf;rounded=1;gradientColor=#7ea6e0;" parent="1" vertex="1"><mxGeometry x="-630" y="477" width="140" height="156" as="geometry"/></mxCell><mxCell id="TRoY8cJy5XEIKivQMF8h-33" value="machinery_id: String" style="text;strokeColor=#b85450;fillColor=#f8cecc;align=left;verticalAlign=top;spacingLeft=4;spacingRight=4;overflow=hidden;rotatable=0;points=[[0,0.5],[1,0.5]];portConstraint=eastwest;rounded=1;gradientColor=#ea6b66;" parent="TRoY8cJy5XEIKivQMF8h-32" vertex="1"><mxGeometry y="26" width="140" height="26" as="geometry"/></mxCell><mxCell id="TRoY8cJy5XEIKivQMF8h-34" value="lessor_id: String" style="text;strokeColor=none;fillColor=none;align=left;verticalAlign=top;spacingLeft=4;spacingRight=4;overflow=hidden;rotatable=0;points=[[0,0.5],[1,0.5]];portConstraint=eastwest;fontColor=#E4FDE1;rounded=1;" parent="TRoY8cJy5XEIKivQMF8h-32" vertex="1"><mxGeometry y="52" width="140" height="26" as="geometry"/></mxCell><mxCell id="TRoY8cJy5XEIKivQMF8h-35" value="lesseeName: String" style="text;strokeColor=none;fillColor=none;align=left;verticalAlign=top;spacingLeft=4;spacingRight=4;overflow=hidden;rotatable=0;points=[[0,0.5],[1,0.5]];portConstraint=eastwest;fontColor=#E4FDE1;rounded=1;" parent="TRoY8cJy5XEIKivQMF8h-32" vertex="1"><mxGeometry y="78" width="140" height="26" as="geometry"/></mxCell><mxCell id="TRoY8cJy5XEIKivQMF8h-36" value="lesseeEmail: String" style="text;strokeColor=none;fillColor=none;align=left;verticalAlign=top;spacingLeft=4;spacingRight=4;overflow=hidden;rotatable=0;points=[[0,0.5],[1,0.5]];portConstraint=eastwest;fontColor=#E4FDE1;rounded=1;" parent="TRoY8cJy5XEIKivQMF8h-32" vertex="1"><mxGeometry y="104" width="140" height="26" as="geometry"/></mxCell><mxCell id="TRoY8cJy5XEIKivQMF8h-37" value="lesseePhone: String" style="text;strokeColor=none;fillColor=none;align=left;verticalAlign=top;spacingLeft=4;spacingRight=4;overflow=hidden;rotatable=0;points=[[0,0.5],[1,0.5]];portConstraint=eastwest;fontColor=#E4FDE1;rounded=1;" parent="TRoY8cJy5XEIKivQMF8h-32" vertex="1"><mxGeometry y="130" width="140" height="26" as="geometry"/></mxCell><mxCell id="TRoY8cJy5XEIKivQMF8h-38" style="edgeStyle=orthogonalEdgeStyle;rounded=1;orthogonalLoop=1;jettySize=auto;html=1;entryX=0.5;entryY=1.038;entryDx=0;entryDy=0;entryPerimeter=0;labelBackgroundColor=#114B5F;strokeColor=#028090;fontColor=#E4FDE1;curved=1;" parent="1" source="TRoY8cJy5XEIKivQMF8h-10" target="TRoY8cJy5XEIKivQMF8h-37" edge="1"><mxGeometry relative="1" as="geometry"/></mxCell></root></mxGraphModel></diagram></mxfile>